<svg xmlns="http://www.w3.org/2000/svg" xmlns:xlink="http://www.w3.org/1999/xlink" fill="none" version="1.1" width="100" height="72" viewBox="0 0 100 72"><g><g><g><ellipse cx="11.515984535217285" cy="11.517851829528809" rx="11.515984535217285" ry="11.517851829528809" fill="#0080FF" fill-opacity="1"/></g></g><g><g><path d="M86.10412166748047,21.888521C76.67950066748047,2.2483213,72.10393166748047,0,67.10082666748048,0L62.63693766748047,0C59.07045166748047,0,57.47978166748047,1.1203241,56.15486366748047,3.8866038C50.069490667480466,16.582331,36.539172167480466,44.855167,32.54131978748047,53.134823C30.78888616748047,56.76437,33.07282856748047,56.733673,46.79571866748047,56.733673C58.60441766748047,56.733673,60.76510666748047,56.733673,58.88942566748047,52.847069C55.83903466748047,46.504959,54.34465366748047,43.539169,53.69374866748047,42.054352C52.96581666748047,40.577217,52.55370166748047,38.91592,52.55370166748047,37.154861C52.55370166748047,31.03145,57.51828366748047,26.066723,63.64217566748047,26.066723C68.32945266748047,26.066723,72.33115366748046,28.97496,73.95648566748048,33.080254C75.25444066748047,35.535759,77.12627766748047,39.614197,80.34612666748046,46.366837C84.42100566748047,54.911232,95.17825366748048,56.733673,98.34417766748047,56.733673C103.65155066748046,56.733673,95.29379666748048,41.026115,86.10412166748047,21.884689L86.10412166748047,21.888521Z" fill-rule="evenodd" fill="#0080FF" fill-opacity="1"/></g></g><g><g><path d="M37.005209966522216,0L2.449553966522217,72.000008L20.01624096652222,72.000008L54.571894966522215,0L37.005209966522216,0Z" fill="#001A33" fill-opacity="1"/></g></g><g><g><path d="M73.92567971557617,40.32014846801758L56.35898971557617,40.32014846801758L71.56086071557617,71.99999646801757L89.12755171557617,71.99999646801757L73.92567971557617,40.32014846801758Z" fill="#001A33" fill-opacity="1"/></g></g></g></svg>